<svg width="204" height="46" viewBox="0 0 204 46" fill="none" xmlns="http://www.w3.org/2000/svg">
<rect x="0.5" y="0.775696" width="203" height="44.1548" stroke="#CDCDCD"/>
<path d="M20.24 29.8658C19.1093 29.8658 18.2933 29.5405 17.792 28.8898C17.2907 28.2391 17.04 27.3005 17.04 26.0738C17.04 25.2525 17.1733 24.5965 17.44 24.1058C17.7173 23.6151 18.1173 23.2098 18.64 22.8898C17.68 22.2498 17.2 21.2845 17.2 19.9938C17.2 18.9378 17.4507 18.1165 17.952 17.5298C18.4533 16.9431 19.216 16.6498 20.24 16.6498C21.2533 16.6498 22.0053 16.9431 22.496 17.5298C22.9973 18.1165 23.248 18.9378 23.248 19.9938C23.248 20.6871 23.1253 21.2685 22.88 21.7378C22.6347 22.1965 22.2773 22.5805 21.808 22.8898C22.3307 23.2205 22.7307 23.6311 23.008 24.1218C23.2853 24.6125 23.424 25.2631 23.424 26.0738C23.424 27.2898 23.1733 28.2285 22.672 28.8898C22.1707 29.5405 21.36 29.8658 20.24 29.8658ZM20.24 22.1058C21.1253 22.0951 21.568 21.3591 21.568 19.8978C21.568 19.3218 21.4613 18.8578 21.248 18.5058C21.0453 18.1538 20.7093 17.9778 20.24 17.9778C19.7707 17.9778 19.424 18.1538 19.2 18.5058C18.9867 18.8578 18.88 19.3218 18.88 19.8978C18.88 20.5378 18.9813 21.0658 19.184 21.4818C19.3867 21.8871 19.7387 22.0951 20.24 22.1058ZM20.24 28.5058C20.816 28.5058 21.216 28.2978 21.44 27.8818C21.664 27.4551 21.776 26.8631 21.776 26.1058C21.776 25.4125 21.6533 24.8471 21.408 24.4098C21.1733 23.9725 20.784 23.7485 20.24 23.7378C19.6853 23.7485 19.2853 23.9725 19.04 24.4098C18.7947 24.8471 18.672 25.4125 18.672 26.1058C18.672 26.8631 18.784 27.4551 19.008 27.8818C19.2427 28.2978 19.6533 28.5058 20.24 28.5058ZM32.1686 32.8258C31.2193 32.8151 30.5153 32.4365 30.0566 31.6898C29.6086 30.9431 29.3259 30.0258 29.2086 28.9378C29.1019 27.8498 29.0486 26.4525 29.0486 24.7458C29.0486 23.0285 29.1019 21.6258 29.2086 20.5378C29.3259 19.4498 29.6086 18.5325 30.0566 17.7858C30.5153 17.0285 31.2193 16.6498 32.1686 16.6498V17.8018C31.7206 17.8125 31.3899 18.1218 31.1766 18.7298C30.9633 19.3378 30.8299 20.0791 30.7766 20.9538C30.7233 21.8285 30.6966 22.9591 30.6966 24.3458V25.4818C30.6966 26.7725 30.7233 27.8445 30.7766 28.6978C30.8406 29.5511 30.9793 30.2605 31.1926 30.8258C31.4059 31.3911 31.7313 31.6791 32.1686 31.6898V32.8258ZM36.5662 29.8658C35.5529 29.8658 34.7742 29.5885 34.2302 29.0338C33.6862 28.4791 33.4036 27.6845 33.3822 26.6498V26.5058H35.0942C35.0942 27.1671 35.2009 27.6578 35.4142 27.9778C35.6382 28.2871 36.0276 28.4418 36.5822 28.4418C37.5422 28.4418 38.0222 27.5191 38.0222 25.6738V23.7058C37.8516 23.9831 37.6062 24.2018 37.2862 24.3618C36.9769 24.5218 36.5929 24.6018 36.1342 24.6018C35.1209 24.6018 34.4009 24.2818 33.9742 23.6418C33.5582 22.9911 33.3502 22.0631 33.3502 20.8578C33.3502 19.5885 33.6116 18.5698 34.1342 17.8018C34.6569 17.0338 35.4676 16.6498 36.5662 16.6498C37.6329 16.6498 38.4276 17.0445 38.9502 17.8338C39.4836 18.6125 39.7502 19.6311 39.7502 20.8898V25.2418C39.7502 26.6391 39.5049 27.7591 39.0142 28.6018C38.5236 29.4445 37.7076 29.8658 36.5662 29.8658ZM36.5662 23.3058C37.1956 23.3058 37.6809 23.0071 38.0222 22.4098V20.4898C38.0222 18.8685 37.5369 18.0578 36.5662 18.0578C36.0329 18.0578 35.6489 18.2818 35.4142 18.7298C35.1902 19.1671 35.0782 19.7378 35.0782 20.4418C35.0782 21.0925 35.1049 21.6098 35.1582 21.9938C35.2116 22.3778 35.3449 22.6925 35.5582 22.9378C35.7716 23.1831 36.1076 23.3058 36.5662 23.3058ZM44.7895 29.8658C43.7228 29.8658 42.9228 29.4765 42.3895 28.6978C41.8668 27.9085 41.6055 26.8791 41.6055 25.6098V21.2418C41.6055 19.8445 41.8508 18.7298 42.3415 17.8978C42.8322 17.0658 43.6482 16.6498 44.7895 16.6498C45.7922 16.6498 46.5655 16.9218 47.1095 17.4658C47.6535 18.0098 47.9362 18.7885 47.9575 19.8018L47.9735 19.9938H46.2455C46.2455 19.3325 46.1388 18.8471 45.9255 18.5378C45.7122 18.2178 45.3335 18.0578 44.7895 18.0578C43.8082 18.0578 43.3175 18.9805 43.3175 20.8258V22.7938C43.4882 22.5165 43.7335 22.2978 44.0535 22.1378C44.3842 21.9778 44.7682 21.8978 45.2055 21.8978C46.2188 21.8978 46.9388 22.2231 47.3655 22.8738C47.7922 23.5138 48.0055 24.4365 48.0055 25.6418C48.0055 26.9111 47.7442 27.9351 47.2215 28.7138C46.6988 29.4818 45.8882 29.8658 44.7895 29.8658ZM44.7895 28.4418C45.3228 28.4418 45.7015 28.2231 45.9255 27.7858C46.1602 27.3485 46.2775 26.7725 46.2775 26.0578C46.2775 25.4071 46.2508 24.8898 46.1975 24.5058C46.1442 24.1218 46.0108 23.8071 45.7975 23.5618C45.5842 23.3165 45.2482 23.1938 44.7895 23.1938C44.4588 23.1938 44.1655 23.2791 43.9095 23.4498C43.6642 23.6205 43.4668 23.8285 43.3175 24.0738V26.0098C43.3175 26.7458 43.4295 27.3378 43.6535 27.7858C43.8882 28.2231 44.2668 28.4418 44.7895 28.4418ZM52.8684 29.8658C51.8017 29.8658 50.9964 29.5191 50.4524 28.8258C49.919 28.1325 49.6524 27.2045 49.6524 26.0418V20.4578C49.6524 19.2738 49.9137 18.3458 50.4364 17.6738C50.9697 16.9911 51.7804 16.6498 52.8684 16.6498C53.9457 16.6498 54.7457 16.9911 55.2684 17.6738C55.8017 18.3458 56.0684 19.2738 56.0684 20.4578V26.0418C56.0684 27.2151 55.8017 28.1485 55.2684 28.8418C54.735 29.5245 53.935 29.8658 52.8684 29.8658ZM52.8684 28.4578C53.8497 28.4578 54.3404 27.6578 54.3404 26.0578V20.4418C54.3404 19.7058 54.2337 19.1245 54.0204 18.6978C53.8177 18.2605 53.4337 18.0418 52.8684 18.0418C52.303 18.0418 51.9137 18.2605 51.7004 18.6978C51.487 19.1245 51.3804 19.7058 51.3804 20.4418V26.0578C51.3804 27.6578 51.8764 28.4578 52.8684 28.4578ZM57.454 31.6738C57.902 31.6631 58.2327 31.3538 58.446 30.7458C58.67 30.1378 58.8087 29.3965 58.862 28.5218C58.9153 27.6365 58.942 26.5005 58.942 25.1138V23.9938C58.942 22.7031 58.91 21.6311 58.846 20.7778C58.7927 19.9245 58.654 19.2151 58.43 18.6498C58.2167 18.0845 57.8913 17.7965 57.454 17.7858V16.6498C58.414 16.6498 59.118 17.0231 59.566 17.7698C60.0247 18.5165 60.3073 19.4338 60.414 20.5218C60.5313 21.6098 60.59 23.0071 60.59 24.7138C60.59 26.4311 60.5313 27.8338 60.414 28.9218C60.3073 30.0098 60.0247 30.9271 59.566 31.6738C59.118 32.4311 58.414 32.8151 57.454 32.8258V31.6738ZM68.7225 29.8658C67.7092 29.8658 66.9305 29.5885 66.3865 29.0338C65.8425 28.4791 65.5598 27.6845 65.5385 26.6498V26.5058H67.2505C67.2505 27.1671 67.3572 27.6578 67.5705 27.9778C67.7945 28.2871 68.1838 28.4418 68.7385 28.4418C69.6985 28.4418 70.1785 27.5191 70.1785 25.6738V23.7058C70.0078 23.9831 69.7625 24.2018 69.4425 24.3618C69.1332 24.5218 68.7492 24.6018 68.2905 24.6018C67.2772 24.6018 66.5572 24.2818 66.1305 23.6418C65.7145 22.9911 65.5065 22.0631 65.5065 20.8578C65.5065 19.5885 65.7678 18.5698 66.2905 17.8018C66.8132 17.0338 67.6238 16.6498 68.7225 16.6498C69.7892 16.6498 70.5838 17.0445 71.1065 17.8338C71.6398 18.6125 71.9065 19.6311 71.9065 20.8898V25.2418C71.9065 26.6391 71.6612 27.7591 71.1705 28.6018C70.6798 29.4445 69.8638 29.8658 68.7225 29.8658ZM68.7225 23.3058C69.3518 23.3058 69.8372 23.0071 70.1785 22.4098V20.4898C70.1785 18.8685 69.6932 18.0578 68.7225 18.0578C68.1892 18.0578 67.8052 18.2818 67.5705 18.7298C67.3465 19.1671 67.2345 19.7378 67.2345 20.4418C67.2345 21.0925 67.2612 21.6098 67.3145 21.9938C67.3678 22.3778 67.5012 22.6925 67.7145 22.9378C67.9278 23.1831 68.2638 23.3058 68.7225 23.3058ZM76.9777 29.8658C75.9111 29.8658 75.1057 29.5191 74.5617 28.8258C74.0284 28.1325 73.7617 27.2045 73.7617 26.0418V20.4578C73.7617 19.2738 74.0231 18.3458 74.5457 17.6738C75.0791 16.9911 75.8897 16.6498 76.9777 16.6498C78.0551 16.6498 78.8551 16.9911 79.3777 17.6738C79.9111 18.3458 80.1777 19.2738 80.1777 20.4578V26.0418C80.1777 27.2151 79.9111 28.1485 79.3777 28.8418C78.8444 29.5245 78.0444 29.8658 76.9777 29.8658ZM76.9777 28.4578C77.9591 28.4578 78.4497 27.6578 78.4497 26.0578V20.4418C78.4497 19.7058 78.3431 19.1245 78.1297 18.6978C77.9271 18.2605 77.5431 18.0418 76.9777 18.0418C76.4124 18.0418 76.0231 18.2605 75.8097 18.6978C75.5964 19.1245 75.4897 19.7058 75.4897 20.4418V26.0578C75.4897 27.6578 75.9857 28.4578 76.9777 28.4578ZM85.2434 29.8658C84.1767 29.8658 83.3714 29.5191 82.8274 28.8258C82.294 28.1325 82.0274 27.2045 82.0274 26.0418V20.4578C82.0274 19.2738 82.2887 18.3458 82.8114 17.6738C83.3447 16.9911 84.1554 16.6498 85.2434 16.6498C86.3207 16.6498 87.1207 16.9911 87.6434 17.6738C88.1767 18.3458 88.4434 19.2738 88.4434 20.4578V26.0418C88.4434 27.2151 88.1767 28.1485 87.6434 28.8418C87.11 29.5245 86.31 29.8658 85.2434 29.8658ZM85.2434 28.4578C86.2247 28.4578 86.7154 27.6578 86.7154 26.0578V20.4418C86.7154 19.7058 86.6087 19.1245 86.3954 18.6978C86.1927 18.2605 85.8087 18.0418 85.2434 18.0418C84.678 18.0418 84.2887 18.2605 84.0754 18.6978C83.862 19.1245 83.7554 19.7058 83.7554 20.4418V26.0578C83.7554 27.6578 84.2514 28.4578 85.2434 28.4578ZM90.149 24.2498H93.717V25.5458H90.149V24.2498ZM98.6176 29.8658C97.5509 29.8658 96.7509 29.4765 96.2176 28.6978C95.6949 27.9085 95.4336 26.8791 95.4336 25.6098V21.2418C95.4336 19.8445 95.6789 18.7298 96.1696 17.8978C96.6603 17.0658 97.4763 16.6498 98.6176 16.6498C99.6203 16.6498 100.394 16.9218 100.938 17.4658C101.482 18.0098 101.764 18.7885 101.786 19.8018L101.802 19.9938H100.074C100.074 19.3325 99.9669 18.8471 99.7536 18.5378C99.5403 18.2178 99.1616 18.0578 98.6176 18.0578C97.6363 18.0578 97.1456 18.9805 97.1456 20.8258V22.7938C97.3163 22.5165 97.5616 22.2978 97.8816 22.1378C98.2123 21.9778 98.5963 21.8978 99.0336 21.8978C100.047 21.8978 100.767 22.2231 101.194 22.8738C101.62 23.5138 101.834 24.4365 101.834 25.6418C101.834 26.9111 101.572 27.9351 101.05 28.7138C100.527 29.4818 99.7163 29.8658 98.6176 29.8658ZM98.6176 28.4418C99.1509 28.4418 99.5296 28.2231 99.7536 27.7858C99.9883 27.3485 100.106 26.7725 100.106 26.0578C100.106 25.4071 100.079 24.8898 100.026 24.5058C99.9723 24.1218 99.8389 23.8071 99.6256 23.5618C99.4123 23.3165 99.0763 23.1938 98.6176 23.1938C98.2869 23.1938 97.9936 23.2791 97.7376 23.4498C97.4923 23.6205 97.2949 23.8285 97.1456 24.0738V26.0098C97.1456 26.7458 97.2576 27.3378 97.4816 27.7858C97.7163 28.2231 98.0949 28.4418 98.6176 28.4418ZM106.696 29.8658C105.63 29.8658 104.824 29.5191 104.28 28.8258C103.747 28.1325 103.48 27.2045 103.48 26.0418V20.4578C103.48 19.2738 103.742 18.3458 104.264 17.6738C104.798 16.9911 105.608 16.6498 106.696 16.6498C107.774 16.6498 108.574 16.9911 109.096 17.6738C109.63 18.3458 109.896 19.2738 109.896 20.4578V26.0418C109.896 27.2151 109.63 28.1485 109.096 28.8418C108.563 29.5245 107.763 29.8658 106.696 29.8658ZM106.696 28.4578C107.678 28.4578 108.168 27.6578 108.168 26.0578V20.4418C108.168 19.7058 108.062 19.1245 107.848 18.6978C107.646 18.2605 107.262 18.0418 106.696 18.0418C106.131 18.0418 105.742 18.2605 105.528 18.6978C105.315 19.1245 105.208 19.7058 105.208 20.4418V26.0578C105.208 27.6578 105.704 28.4578 106.696 28.4578ZM111.602 24.2498H115.17V25.5458H111.602V24.2498ZM119.879 29.8658C118.865 29.8658 118.087 29.5885 117.543 29.0338C116.999 28.4791 116.716 27.6845 116.695 26.6498V26.5058H118.407C118.407 27.1671 118.513 27.6578 118.727 27.9778C118.951 28.2871 119.34 28.4418 119.895 28.4418C120.855 28.4418 121.335 27.5191 121.335 25.6738V23.7058C121.164 23.9831 120.919 24.2018 120.599 24.3618C120.289 24.5218 119.905 24.6018 119.447 24.6018C118.433 24.6018 117.713 24.2818 117.287 23.6418C116.871 22.9911 116.663 22.0631 116.663 20.8578C116.663 19.5885 116.924 18.5698 117.447 17.8018C117.969 17.0338 118.78 16.6498 119.879 16.6498C120.945 16.6498 121.74 17.0445 122.263 17.8338C122.796 18.6125 123.063 19.6311 123.063 20.8898V25.2418C123.063 26.6391 122.817 27.7591 122.327 28.6018C121.836 29.4445 121.02 29.8658 119.879 29.8658ZM119.879 23.3058C120.508 23.3058 120.993 23.0071 121.335 22.4098V20.4898C121.335 18.8685 120.849 18.0578 119.879 18.0578C119.345 18.0578 118.961 18.2818 118.727 18.7298C118.503 19.1671 118.391 19.7378 118.391 20.4418C118.391 21.0925 118.417 21.6098 118.471 21.9938C118.524 22.3778 118.657 22.6925 118.871 22.9378C119.084 23.1831 119.42 23.3058 119.879 23.3058ZM128.134 29.8658C127.067 29.8658 126.262 29.5191 125.718 28.8258C125.185 28.1325 124.918 27.2045 124.918 26.0418V20.4578C124.918 19.2738 125.179 18.3458 125.702 17.6738C126.235 16.9911 127.046 16.6498 128.134 16.6498C129.211 16.6498 130.011 16.9911 130.534 17.6738C131.067 18.3458 131.334 19.2738 131.334 20.4578V26.0418C131.334 27.2151 131.067 28.1485 130.534 28.8418C130.001 29.5245 129.201 29.8658 128.134 29.8658ZM128.134 28.4578C129.115 28.4578 129.606 27.6578 129.606 26.0578V20.4418C129.606 19.7058 129.499 19.1245 129.286 18.6978C129.083 18.2605 128.699 18.0418 128.134 18.0418C127.569 18.0418 127.179 18.2605 126.966 18.6978C126.753 19.1245 126.646 19.7058 126.646 20.4418V26.0578C126.646 27.6578 127.142 28.4578 128.134 28.4578Z" fill="#444444"/>
<g clip-path="url(#clip0)">
<path d="M188.9 22.7527H180.4V23.9569H188.9L186.8 26.0641L187.7 26.9672L190.8 23.8565C190.897 23.7263 190.95 23.5678 190.95 23.405C190.95 23.2421 190.897 23.0837 190.8 22.9534L187.7 19.8428L186.8 20.7459L188.9 22.7527Z" fill="black"/>
<path d="M179.1 32.7872V26.5659C179.088 26.41 179.022 26.2635 178.911 26.153C178.801 26.0425 178.655 25.9754 178.5 25.9638H174.1C174.105 26.2815 174.233 26.5848 174.457 26.8095C174.681 27.0342 174.983 27.1627 175.3 27.1679H177.8V32.1851H174.1C173.863 32.2 173.626 32.1676 173.402 32.0896C173.178 32.0117 172.971 31.8898 172.794 31.7311C172.618 31.5723 172.474 31.3799 172.372 31.165C172.27 30.9501 172.211 30.717 172.2 30.4793V16.4311C172.192 15.9668 172.365 15.5177 172.683 15.1801C173.001 14.8425 173.438 14.6432 173.9 14.6249H177.8V19.6421H175.4C175.083 19.6473 174.781 19.7758 174.557 20.0005C174.333 20.2252 174.205 20.5285 174.2 20.8462H178.6C178.755 20.8347 178.901 20.7675 179.011 20.657C179.122 20.5465 179.188 20.4 179.2 20.2442V13.9225C179.152 13.7658 179.061 13.626 178.937 13.5194C178.813 13.4128 178.662 13.3438 178.5 13.3205H174.1C173.706 13.3071 173.313 13.3717 172.944 13.5107C172.575 13.6498 172.237 13.8604 171.949 14.1307C171.661 14.401 171.429 14.7255 171.266 15.0858C171.103 15.4461 171.013 15.835 171 16.2304V30.1782C170.971 30.5773 171.025 30.978 171.157 31.3552C171.29 31.7324 171.5 32.078 171.772 32.3701C172.044 32.6623 172.374 32.8947 172.74 33.0529C173.106 33.211 173.501 33.2913 173.9 33.2889H178.5C178.574 33.304 178.649 33.3022 178.722 33.2839C178.795 33.2655 178.863 33.2309 178.92 33.1828C178.978 33.1346 179.024 33.074 179.055 33.0055C179.086 32.9371 179.102 32.8624 179.1 32.7872Z" fill="black"/>
</g>
<defs>
<clipPath id="clip0">
<rect width="20" height="20.0688" fill="white" transform="translate(171 13.3204)"/>
</clipPath>
</defs>
</svg>
