<svg xmlns="http://www.w3.org/2000/svg" width="20" height="20" fill="none">
  <defs/>
  <g fill="#000" clip-path="url(#clip0)">
    <path d="M17.8 9.4H9.6v1.2h8.2l-2 2.1.8.9 3-3.1a.8.8 0 000-.9l-3-3.1-.9.9 2 2zM8.4 19.4v-6.2l-.2-.4a.6.6 0 00-.4-.2H3.6c0 .3.1.6.3.8.2.3.5.4.8.4h2.4v5H3.6a1.6 1.6 0 01-1.3-.5 1.8 1.8 0 01-.5-1.2v-14c0-.5.1-1 .4-1.2.3-.4.8-.6 1.2-.6h3.7v5H4.8c-.3 0-.6.1-.8.4-.2.2-.3.5-.3.8h4.2c.1 0 .3 0 .4-.2l.2-.4V.6c0-.2-.2-.3-.3-.4a.8.8 0 00-.4-.2H3.6a2.8 2.8 0 00-2 .8A3 3 0 00.5 3v13.9a3 3 0 00.8 2.2 2.8 2.8 0 002 .9h4.4a.5.5 0 00.4-.1.5.5 0 00.2-.4z"/>
  </g>
  <defs>
    <clipPath id="clip0">
      <path fill="#fff" d="M0 0h19.1v20H0z" transform="translate(.6)"/>
    </clipPath>
  </defs>
</svg>
